<svg id="Layer_1" data-name="Layer 1" xmlns="http://www.w3.org/2000/svg" viewBox="0 0 135.4 135.4"><defs><style>.cls-1{fill:#fff;}</style></defs><title>best deal</title><path class="cls-1" d="M57.19,112.53a3.78,3.78,0,0,1-2.68-1.11l-27-27a3.79,3.79,0,1,1,5.37-5.37l24.3,24.3,56.68-56.68a3.79,3.79,0,0,1,5.37,5.37L59.87,111.42A3.78,3.78,0,0,1,57.19,112.53Z" transform="translate(-7.3 -7.3)"/><path class="cls-1" d="M75,142.7A67.7,67.7,0,1,1,142.7,75,67.78,67.78,0,0,1,75,142.7ZM75,13.95A61.05,61.05,0,1,0,136.05,75,61.12,61.12,0,0,0,75,13.95Z" transform="translate(-7.3 -7.3)"/></svg>