<?xml version="1.0" encoding="UTF-8" standalone="no"?>
<svg width="85px" height="68px" viewBox="0 0 85 68" version="1.1" xmlns="http://www.w3.org/2000/svg" xmlns:xlink="http://www.w3.org/1999/xlink">
    <!-- Generator: Sketch 50.2 (55047) - http://www.bohemiancoding.com/sketch -->
    <title>Group</title>
    <desc>Created with Sketch.</desc>
    <defs></defs>
    <g id="iconos" stroke="none" stroke-width="1" fill="none" fill-rule="evenodd">
        <g id="Desktop" transform="translate(-715.000000, -479.000000)" fill="#FFFFFF" fill-rule="nonzero">
            <g id="Group" transform="translate(715.000000, 479.000000)">
                <path d="M76.2,0.3 L16.1,0.3 C11.2,0.3 7.3,4.3 7.3,9.1 L7.3,58.6 C7.3,59.6 8.1,60.4 9.1,60.4 C10.1,60.4 10.9,59.6 10.9,58.6 L10.9,9.2 C10.9,6.3 13.3,3.9 16.2,3.9 L76.3,3.9 C79.2,3.9 81.6,6.3 81.6,9.2 L81.6,58.7 C81.6,61.6 79.2,64 76.3,64 L9,64 C8,64 7.2,64.8 7.2,65.8 C7.2,66.8 8,67.6 9,67.6 L76.2,67.6 C81.1,67.6 85,63.6 85,58.8 L85,9.2 C85,4.3 81,0.3 76.2,0.3 Z" id="Shape"></path>
                <path d="M16.1,64 L9,64 C6.1,64 3.7,61.6 3.7,58.7 L3.7,19.8 C3.7,16.9 6.1,14.5 9,14.5 C10,14.5 10.8,13.7 10.8,12.7 C10.8,11.7 10,10.9 9,10.9 C4.1,10.9 0.2,14.9 0.2,19.7 L0.2,58.6 C0.2,63.5 4.2,67.4 9,67.4 L16.1,67.4 C17.1,67.4 17.9,66.6 17.9,65.6 C17.8,64.8 17,64 16.1,64 Z" id="Shape"></path>
                <path d="M44.3,32.2 L16,32.2 C15,32.2 14.2,33 14.2,34 L14.2,55.2 C14.2,56.2 15,57 16,57 L44.3,57 C45.3,57 46.1,56.2 46.1,55.2 L46.1,33.9 C46.1,33 45.3,32.2 44.3,32.2 Z M42.6,53.4 L17.8,53.4 L17.8,35.7 L42.6,35.7 L42.6,53.4 Z" id="Shape"></path>
                <path d="M76.2,32.2 L51.4,32.2 C50.4,32.2 49.6,33 49.6,34 C49.6,35 50.4,35.8 51.4,35.8 L76.2,35.8 C77.2,35.8 78,35 78,34 C77.9,33 77.1,32.2 76.2,32.2 Z" id="Shape"></path>
                <path d="M76.2,42.8 L51.4,42.8 C50.4,42.8 49.6,43.6 49.6,44.6 C49.6,45.6 50.4,46.4 51.4,46.4 L76.2,46.4 C77.2,46.4 78,45.6 78,44.6 C77.9,43.6 77.1,42.8 76.2,42.8 Z" id="Shape"></path>
                <path d="M76.2,53.4 L51.4,53.4 C50.4,53.4 49.6,54.2 49.6,55.2 C49.6,56.2 50.4,57 51.4,57 L76.2,57 C77.2,57 78,56.2 78,55.2 C77.9,54.2 77.1,53.4 76.2,53.4 Z" id="Shape"></path>
                <path d="M76.2,21.6 L16.1,21.6 C15.1,21.6 14.3,22.4 14.3,23.4 C14.3,24.4 15.1,25.2 16.1,25.2 L76.2,25.2 C77.2,25.2 78,24.4 78,23.4 C77.9,22.3 77.1,21.6 76.2,21.6 Z" id="Shape"></path>
                <path d="M76.2,10.9 L16.1,10.9 C15.1,10.9 14.3,11.7 14.3,12.7 C14.3,13.7 15.1,14.5 16.1,14.5 L76.2,14.5 C77.2,14.5 78,13.7 78,12.7 C77.9,11.7 77.1,10.9 76.2,10.9 Z" id="Shape"></path>
            </g>
        </g>
    </g>
</svg>