<?xml version="1.0" encoding="UTF-8" standalone="no"?>
<svg width="103px" height="72px" viewBox="0 0 103 72" version="1.1" xmlns="http://www.w3.org/2000/svg" xmlns:xlink="http://www.w3.org/1999/xlink">
    <!-- Generator: Sketch 50.2 (55047) - http://www.bohemiancoding.com/sketch -->
    <title>Group</title>
    <desc>Created with Sketch.</desc>
    <defs></defs>
    <g id="iconos" stroke="none" stroke-width="1" fill="none" fill-rule="evenodd">
        <g id="Desktop" transform="translate(-467.000000, -477.000000)" fill="#FFFFFF" fill-rule="nonzero">
            <g id="Group" transform="translate(467.000000, 477.000000)">
                <path d="M90.2,68.3 L90.2,56.2 L93.6,56.2 C98.5,56.2 102.5,52.2 102.5,47.3 L102.5,9.3 C102.5,4.4 98.5,0.4 93.6,0.4 L29.2,0.4 C24.3,0.4 20.3,4.4 20.3,9.3 L20.3,47.3 C20.3,52.2 24.3,56.2 29.2,56.2 L72.3,56.2 L84.6,70.4 C85.2,71.1 86.1,71.5 87,71.5 C88.8,71.5 90.2,70.1 90.2,68.3 Z M86.4,54.3 L86.4,66.5 L74.7,53 C74.3,52.6 73.8,52.3 73.2,52.3 L29.2,52.3 C26.4,52.3 24.2,50 24.2,47.3 L24.2,9.3 C24.2,6.5 26.5,4.3 29.2,4.3 L93.5,4.3 C96.3,4.3 98.5,6.6 98.5,9.3 L98.5,47.3 C98.5,50.1 96.2,52.3 93.5,52.3 L88.2,52.3 C87.2,52.3 86.4,53.2 86.4,54.3 Z" id="Shape"></path>
                <path d="M68.5,56.2 C69.6,56.2 70.4,55.3 70.4,54.3 C70.4,53.2 69.5,52.4 68.5,52.4 L29.6,52.4 C29,52.4 28.5,52.6 28.1,53.1 L16.5,66.6 L16.5,54.3 C16.5,53.2 15.6,52.4 14.6,52.4 L9.3,52.4 C6.5,52.4 4.3,50.1 4.3,47.4 L4.3,9.4 C4.3,6.6 6.6,4.4 9.3,4.4 C10.4,4.4 11.2,3.5 11.2,2.5 C11.2,1.4 10.3,0.6 9.3,0.6 C4.4,0.6 0.4,4.6 0.4,9.5 L0.4,47.5 C0.4,52.4 4.4,56.4 9.3,56.4 L12.7,56.4 L12.7,68.5 C12.7,69.9 13.5,71 14.8,71.5 C15.2,71.6 15.5,71.7 15.9,71.7 C16.8,71.7 17.7,71.3 18.3,70.6 L30.6,56.4 L68.5,56.4 L68.5,56.2 Z" id="Shape"></path>
                <path d="M64.5,35.9 C64.5,37.6 63.1,39 61.4,39 C59.7,39 58.3,37.6 58.3,35.9 C58.3,34.2 59.7,32.8 61.4,32.8 C63.1,32.8 64.5,34.2 64.5,35.9 Z" id="Shape"></path>
                <path d="M54.2,35.9 C54.2,37.6 52.8,39 51.1,39 C49.4,39 48,37.6 48,35.9 C48,34.2 49.4,32.8 51.1,32.8 C52.8,32.8 54.2,34.2 54.2,35.9 Z" id="Shape"></path>
                <path d="M74.9,35.9 C74.9,37.6 73.5,39 71.8,39 C70.1,39 68.7,37.6 68.7,35.9 C68.7,34.2 70.1,32.8 71.8,32.8 C73.5,32.8 74.9,34.2 74.9,35.9 Z" id="Shape"></path>
            </g>
        </g>
    </g>
</svg>