<svg id="Layer_1" data-name="Layer 1" xmlns="http://www.w3.org/2000/svg" viewBox="0 0 143.71 143.65"><defs><style>.cls-1{fill:#fff;}</style></defs><title>click</title><path class="cls-1" d="M123.59,102.42l20.81-12a4.9,4.9,0,0,0-.63-8.79L51,44.61a4.91,4.91,0,0,0-6,2,5,5,0,0,0-.31,4.49l37,92.64a4.9,4.9,0,0,0,8.8.64l12-20.8,4.4-8.81a14.55,14.55,0,0,1,5.84-6.15Z" transform="translate(-3.15 -3.18)"/><path class="cls-1" d="M27.29,19.54a5.5,5.5,0,0,0-7.78,7.78L31.73,39.54a5.5,5.5,0,0,0,7.78-7.78Zm0,0" transform="translate(-3.15 -3.18)"/><path class="cls-1" d="M31.43,57.56a5.5,5.5,0,0,0-5.5-5.5H8.65a5.5,5.5,0,0,0,0,11H25.93a5.5,5.5,0,0,0,5.5-5.5h0Zm0,0" transform="translate(-3.15 -3.18)"/><path class="cls-1" d="M29.2,74.53L17,86.76a5.5,5.5,0,0,0,7.78,7.78L37,82.31a5.5,5.5,0,0,0-7.78-7.78h0Zm0,0" transform="translate(-3.15 -3.18)"/><path class="cls-1" d="M57.53,31.46A5.5,5.5,0,0,0,63,26V8.67a5.5,5.5,0,0,0-11,0V26a5.5,5.5,0,0,0,5.5,5.5h0Zm0,0" transform="translate(-3.15 -3.18)"/><path class="cls-1" d="M78.39,38.62A5.48,5.48,0,0,0,82.28,37L94.5,24.79A5.5,5.5,0,0,0,86.72,17L74.5,29.23a5.5,5.5,0,0,0,3.89,9.39h0Zm0,0" transform="translate(-3.15 -3.18)"/></svg>