<?xml version="1.0" encoding="utf-8"?>
<!-- Generator: Adobe Illustrator 17.0.0, SVG Export Plug-In . SVG Version: 6.00 Build 0)  -->
<!DOCTYPE svg PUBLIC "-//W3C//DTD SVG 1.1//EN" "http://www.w3.org/Graphics/SVG/1.1/DTD/svg11.dtd">
<svg version="1.1" id="Layer_1" xmlns="http://www.w3.org/2000/svg" xmlns:xlink="http://www.w3.org/1999/xlink" x="0px" y="0px"
	 width="269px" height="187px" viewBox="0 0 269 187" enable-background="new 0 0 269 187" xml:space="preserve">
<path fill="#FFFFFF" d="M127.793,187.92c-27.609-1.298-55.225-2.465-82.821-4.008c-5.408-0.302-10.978-1.399-16.055-3.267
	c-16.742-6.16-23.314-19.48-24.967-36.358c-2.949-30.097-2.856-60.204-0.844-90.321c0.464-6.944,1.63-13.888,3.053-20.712
	C9.158,18.867,22.056,7.239,38.21,6.12c28.22-1.954,56.507-3.66,84.781-3.943c30.13-0.301,60.28,1.068,90.414,1.939
	c6.969,0.201,13.952,1.062,20.856,2.103c17.525,2.641,27.68,12.904,30.819,30.577c3.745,21.082,4.772,42.388,4.044,63.695
	c-0.59,17.26-2.252,34.508-4.067,51.696c-2.105,19.935-19.121,29.983-32.447,30.759c-29.573,1.722-59.184,2.81-88.783,4.069
	c-5.322,0.226-10.662,0.032-15.994,0.032C127.82,187.338,127.806,187.629,127.793,187.92z M110.219,53.501
	c0,27.697,0,54.509,0,82.004c22.471-13.822,44.304-27.253,66.675-41.014C154.375,80.647,132.598,67.259,110.219,53.501z"/>
<path fill="none" enable-background="new    " d="z"/>
</svg>
