<?xml version="1.0" encoding="utf-8"?>
<!-- Generator: Adobe Illustrator 19.2.1, SVG Export Plug-In . SVG Version: 6.00 Build 0)  -->
<svg version="1.1" id="Layer_1" xmlns="http://www.w3.org/2000/svg" xmlns:xlink="http://www.w3.org/1999/xlink" x="0px" y="0px"
	 viewBox="0 0 600 170.1" style="enable-background:new 0 0 600 170.1;" xml:space="preserve">
<style type="text/css">
	.st0{fill:#FFFFFF;}
</style>
<g>
	<path class="st0" d="M147.8,76.2c0-8.8-5.7-10.1-9.2-10.1H68.5c-3.4,0-9.2,1.3-9.2,10.1v10.5c0,1.7,1.3,3,3,3h82.5c1.7,0,3-1.3,3-3
		V76.2z"/>
	<path class="st0" d="M40.2,92.7h-8.9c-2.4,0-4.4-2-4.4-4.4V49.9c0-2.4-2-4.4-4.4-4.4h0c-2.4,0-4.4,2-4.4,4.4v82.6
		c0,2.4,2,4.4,4.4,4.4h0c2.4,0,4.4-2,4.4-4.4v-14.8c0-2.4,2-4.4,4.4-4.4h109.1c2.4,0,4.4,2,4.4,4.4v14.7c0,2.4,2,4.4,4.4,4.4l0,0
		c2.4,0,4.4-2,4.4-4.4V97.1c0-2.4-2-4.4-4.4-4.4H40.2z"/>
	<circle class="st0" cx="41.6" cy="77.9" r="12.4"/>
</g>
<g>
	<path class="st0" d="M400.9,63.8c-2.3-5.9-20.1-8-29-4.5c-5.9,2.3-23.5,9.3-23.5,9.3l-38.1,15.2L267,100.9l-28.6-12.3
		c-0.6-0.3-1.3-0.1-1.7,0.5c-0.4,0.6-0.3,1.3,0.2,1.8l20,19.9c-0.4,2.2,0.4,3.5,0.4,3.5c-1.7,0.8-2.5,2.7-1.8,4.4
		c0.7,1.7,2.6,2.6,4.3,2c0.2,0.2,1.3,1.2,2.4,2.3c1.8,1.8,4.5,2.3,6.9,1.4l57.7-22.7L312.8,117c-0.9,1-0.9,2.6,0.1,3.6
		c0.5,0.5,0.9,0.9,1.4,1.4c0.9,0.9,2.4,1,3.4,0.2l47.7-36l15.2-6C395.2,74.8,403.2,69.6,400.9,63.8L400.9,63.8z M400.9,63.8"/>
	<path class="st0" d="M297,79.7l14.3,1.1l33.5-13.3l-47.9,5.1c-1.3,0.1-2.3,1.2-2.3,2.5c0,0.7,0,1.3,0,2
		C294.5,78.4,295.6,79.6,297,79.7L297,79.7z M297,79.7"/>
</g>
<g>
	<path class="st0" d="M511.4,112.6l-13.1-8.1l1.4-3.7l-0.2,0.1c-1.1,0.4-2.3,0.7-3.5,0.7c-1.7,0-3.4-0.5-4.9-1.3
		c-2.5-1.5-4.2-4.1-4.5-7l-1.9-16.8c0-0.3,0-0.6,0-0.8L476.9,97c-1.1,3.1-0.2,6.1,0.6,9c0.2,0.6,5.5,15.4,5.5,15.4l-10.7,14.4
		c-2.2,2.9-1.5,7.1,1.4,9.2c1.2,0.9,2.6,1.3,3.9,1.3c2,0,4-0.9,5.3-2.7l12.8-17.3c1.3-1.8,1.7-4.2,0.9-6.3l-0.5-1.5l4.9,3l-1.6,17.5
		c-0.3,3.6,2.3,6.8,6,7.2c0.2,0,0.4,0,0.6,0c3.4,0,6.3-2.6,6.6-6l2-21.6C514.7,116.3,513.5,113.9,511.4,112.6L511.4,112.6z
		 M511.4,112.6"/>
	<path class="st0" d="M503.5,74.2l0.5,4.5l4.1-1.6c1.4-5.5-1.6-11.3-7.1-13.3c-5.2-1.9-10.9,0.3-13.6,5c1.5-1.5,3.4-2.5,5.7-2.8
		C498.3,65.3,502.9,69.1,503.5,74.2L503.5,74.2z M503.5,74.2"/>
	<path class="st0" d="M503.5,59.4c6.5,0,11.7-5.2,11.7-11.7c0-6.5-5.2-11.7-11.7-11.7c-6.5,0-11.7,5.2-11.7,11.7
		C491.9,54.2,497.1,59.4,503.5,59.4L503.5,59.4z M503.5,59.4"/>
	<path class="st0" d="M577.9,104.5h-34.9c-2.7,0-5,2.2-5,5v13.9c0,2.7,2.2,5,5,5h34.9c2.7,0,5-2.2,5-5v-13.9
		C582.8,106.7,580.6,104.5,577.9,104.5L577.9,104.5z M577.9,104.5"/>
	<path class="st0" d="M538.9,97.6h19.5c2.7,0,5-2.2,5-5V80.3c0-2.7-2.2-5-5-5h-19.5c-2.7,0-5,2.2-5,5v12.4
		C533.9,95.4,536.2,97.6,538.9,97.6L538.9,97.6z M538.9,97.6"/>
	<path class="st0" d="M573.4,133.5h-43.4V90.3c0-2.1-1.7-3.8-3.8-3.8h-5.7c0.5-1.3,0.6-2.8,0-4.2c-1.2-2.9-4.5-4.3-7.4-3.2
		l-12.4,4.9l-1.1-9.4c-0.3-3.1-3.2-5.4-6.3-5c-3.1,0.3-5.3,3.1-5,6.3l1.9,16.8c0.2,1.8,1.2,3.3,2.7,4.2c0.9,0.5,1.9,0.8,2.9,0.8
		c0.7,0,1.4-0.1,2.1-0.4l12.3-4.9c0.7,1,1.8,1.6,3,1.6h9v43.2c0,2.1,1.7,3.8,3.8,3.8h4.6c0.6,2.9,3.1,5,6.1,5s5.6-2.2,6.1-5h14.2
		c0.6,2.9,3.1,5,6.1,5c3,0,5.6-2.2,6.1-5h3.9c2.1,0,3.8-1.7,3.8-3.8C577.1,135.2,575.5,133.5,573.4,133.5L573.4,133.5z M573.4,133.5
		"/>
</g>
</svg>
