<?xml version="1.0" encoding="utf-8"?>
<!-- Generator: Adobe Illustrator 17.0.0, SVG Export Plug-In . SVG Version: 6.00 Build 0)  -->
<!DOCTYPE svg PUBLIC "-//W3C//DTD SVG 1.1//EN" "http://www.w3.org/Graphics/SVG/1.1/DTD/svg11.dtd">
<svg version="1.1" id="Capa_1" xmlns="http://www.w3.org/2000/svg" xmlns:xlink="http://www.w3.org/1999/xlink" x="0px" y="0px"
	 width="88px" height="90px" viewBox="330.5 0 88 90" enable-background="new 330.5 0 88 90" xml:space="preserve">
<path fill="#FFFFFF" d="M374.509,24.802c-11.18,0-20.197,9.018-20.197,20.197s9.018,20.197,20.197,20.197S394.706,56.179,394.706,45
	S385.688,24.802,374.509,24.802z M374.509,58.13c-7.225,0-13.131-5.889-13.131-13.131s5.889-13.131,13.131-13.131
	s13.131,5.889,13.131,13.131S381.733,58.13,374.509,58.13z M400.243,23.976c0,2.619-2.109,4.711-4.711,4.711
	c-2.619,0-4.711-2.109-4.711-4.711s2.109-4.711,4.711-4.711S400.243,21.374,400.243,23.976z M413.62,28.757
	c-0.299-6.311-1.74-11.9-6.363-16.506c-4.605-4.605-10.195-6.047-16.506-6.363c-6.504-0.369-25.998-0.369-32.502,0
	c-6.293,0.299-11.883,1.74-16.506,6.346s-6.047,10.195-6.363,16.506c-0.369,6.504-0.369,25.998,0,32.502
	c0.299,6.311,1.74,11.9,6.363,16.506c4.623,4.605,10.195,6.047,16.506,6.363c6.504,0.369,25.998,0.369,32.502,0
	c6.311-0.299,11.9-1.74,16.506-6.363c4.605-4.605,6.047-10.195,6.363-16.506C413.989,54.738,413.989,35.261,413.62,28.757z
	 M405.218,68.221c-1.371,3.445-4.025,6.1-7.488,7.488c-5.186,2.057-17.49,1.582-23.221,1.582s-18.053,0.457-23.221-1.582
	c-3.445-1.371-6.1-4.025-7.488-7.488c-2.057-5.186-1.582-17.49-1.582-23.221s-0.457-18.053,1.582-23.221
	c1.371-3.445,4.025-6.1,7.488-7.488c5.186-2.057,17.49-1.582,23.221-1.582s18.053-0.457,23.221,1.582
	c3.445,1.371,6.1,4.025,7.488,7.488c2.057,5.186,1.582,17.49,1.582,23.221S407.274,63.052,405.218,68.221z"/>
</svg>
