<?xml version="1.0" encoding="utf-8"?>
<!-- Generator: Adobe Illustrator 19.2.1, SVG Export Plug-In . SVG Version: 6.00 Build 0)  -->
<svg version="1.1" id="Layer_1" xmlns="http://www.w3.org/2000/svg" xmlns:xlink="http://www.w3.org/1999/xlink" x="0px" y="0px"
	 viewBox="0 0 600 125.5" style="enable-background:new 0 0 600 125.5;" xml:space="preserve">
<style type="text/css">
	.st0{fill:#00ADEE;}
	.st1{fill:#152E68;}
	.st2{fill:none;}
	.st3{fill:url(#SVGID_1_);}
</style>
<g>
	<path class="st0" d="M168.9,96.6c0-1.5,0.5-2.8,1.6-3.8c1.1-1,2.3-1.5,3.8-1.5c1.5,0,2.8,0.5,3.8,1.5c1.1,1,1.6,2.3,1.6,3.8
		c0,1.5-0.5,2.8-1.6,3.9c-1,1-2.3,1.5-3.8,1.5c-1.5,0-2.8-0.5-3.8-1.5C169.5,99.4,168.9,98.1,168.9,96.6z M170.1,96.6
		c0,1.2,0.4,2.3,1.2,3.1c0.8,0.8,1.8,1.2,3,1.2c1.2,0,2.2-0.4,3-1.2c0.8-0.8,1.2-1.9,1.2-3.1c0-1.2-0.4-2.3-1.2-3.1
		c-0.8-0.8-1.8-1.2-3-1.2c-1.2,0-2.2,0.4-3,1.2C170.5,94.3,170.1,95.4,170.1,96.6z"/>
	<path class="st0" d="M183.6,101.8V91.4h3.3c0.9,0,1.6,0.3,2.2,0.9c0.6,0.6,0.9,1.3,0.9,2.2s-0.3,1.7-0.9,2.3
		c-0.6,0.6-1.4,0.9-2.2,0.9h-2.2v4.1H183.6z M184.7,96.6h2.1c0.6,0,1.1-0.2,1.5-0.6c0.4-0.4,0.6-0.9,0.6-1.5c0-0.6-0.2-1.1-0.6-1.5
		c-0.4-0.4-0.9-0.6-1.5-0.6h-2.1V96.6z"/>
	<path class="st0" d="M193.9,101.8V91.4h5.9v1.1h-4.7v3.3h4.4v1.1h-4.4v3.9h4.8v1.1H193.9z"/>
	<path class="st0" d="M203.8,101.8V91.4h3.5c0.9,0,1.6,0.3,2.2,0.9c0.6,0.6,0.9,1.3,0.9,2.2c0,1.4-0.8,2.5-2,2.9l2.5,4.3h-1.3
		l-2.3-4.1h0H205v4.1H203.8z M205,96.6h2.3c0.6,0,1.1-0.2,1.5-0.6c0.4-0.4,0.6-0.9,0.6-1.5c0-1.1-0.8-2-2-2H205V96.6z"/>
	<path class="st0" d="M213.5,101.8l4.7-10.7l4.7,10.7h-1.3l-1.1-2.6h-4.7l-1.1,2.6H213.5z M216.3,98.2h3.7l-1.9-4.4L216.3,98.2z"/>
	<path class="st0" d="M227.2,101.8v-9.3h-2.8v-1.1h6.8v1.1h-2.8v9.3H227.2z"/>
	<path class="st0" d="M234.8,101.8V91.4h5.9v1.1h-4.7v3.3h4.4v1.1h-4.4v3.9h4.8v1.1H234.8z"/>
	<path class="st0" d="M244.7,101.8V91.4h3.3c1.7,0,3,0.5,3.9,1.4c1,1,1.4,2.2,1.4,3.8c0,1.6-0.5,2.8-1.4,3.8c-1,0.9-2.3,1.4-3.9,1.4
		H244.7z M245.9,100.7h2.1c2.8,0,4.3-1.6,4.3-4.1c0-2.5-1.5-4.1-4.3-4.1h-2.1V100.7z"/>
	<path class="st0" d="M264.7,101.8V91.4h3.2c0.8,0,1.4,0.3,2,0.8c0.5,0.5,0.8,1.1,0.8,1.9c0,1-0.5,1.7-1.3,2.1
		c1.4,0.3,2.1,1.2,2.1,2.6c0,0.9-0.3,1.6-0.9,2.2c-0.6,0.6-1.3,0.9-2.2,0.9H264.7z M265.9,95.7h1.9c1,0,1.7-0.7,1.7-1.6
		s-0.7-1.6-1.7-1.6h-1.9V95.7z M265.9,100.7h2.3c1.2,0,2.1-0.8,2.1-2c0-0.6-0.2-1-0.6-1.4c-0.4-0.4-0.9-0.6-1.5-0.6h-2.3V100.7z"/>
	<path class="st0" d="M277.3,101.8v-4.3l-3.6-6.1h1.3l3,5l2.9-5h1.2l-3.6,6.1v4.3H277.3z"/>
	<path class="st0" d="M299.9,92.3v1.3c-0.9-0.9-2-1.4-3.3-1.4c-1.2,0-2.2,0.4-3,1.2c-0.8,0.8-1.2,1.8-1.2,3.1c0,1.2,0.4,2.3,1.2,3.1
		c0.8,0.8,1.8,1.2,3,1.2c1.3,0,2.4-0.5,3.3-1.4v1.3c-0.9,0.7-1.9,1.1-3.3,1.1c-1.5,0-2.8-0.5-3.8-1.5c-1-1-1.6-2.3-1.6-3.9
		c0-1.5,0.5-2.8,1.6-3.8c1.1-1,2.3-1.5,3.8-1.5C297.9,91.2,299,91.6,299.9,92.3z"/>
	<path class="st0" d="M303,101.8l4.7-10.7l4.7,10.7h-1.3l-1.1-2.6h-4.7l-1.1,2.6H303z M305.8,98.2h3.7l-1.9-4.4L305.8,98.2z"/>
	<path class="st0" d="M316,101.8V91.4h3.5c0.9,0,1.6,0.3,2.2,0.9c0.6,0.6,0.9,1.3,0.9,2.2c0,1.4-0.8,2.5-2,2.9l2.5,4.3h-1.3
		l-2.3-4.1h0h-2.3v4.1H316z M317.2,96.6h2.3c0.6,0,1.1-0.2,1.5-0.6c0.4-0.4,0.6-0.9,0.6-1.5c0-1.1-0.8-2-2-2h-2.3V96.6z"/>
	<path class="st0" d="M326.9,101.8V91.4h1.2v10.4H326.9z"/>
	<path class="st0" d="M332.6,101.8V91.4h3.2c0.8,0,1.4,0.3,2,0.8c0.5,0.5,0.8,1.1,0.8,1.9c0,1-0.5,1.7-1.3,2.1
		c1.4,0.3,2.1,1.2,2.1,2.6c0,0.9-0.3,1.6-0.9,2.2c-0.6,0.6-1.3,0.9-2.2,0.9H332.6z M333.8,95.7h1.9c1,0,1.7-0.7,1.7-1.6
		s-0.7-1.6-1.7-1.6h-1.9V95.7z M333.8,100.7h2.3c1.2,0,2.1-0.8,2.1-2c0-0.6-0.2-1-0.6-1.4c-0.4-0.4-0.9-0.6-1.5-0.6h-2.3V100.7z"/>
	<path class="st0" d="M343.2,101.8V91.4h3.2c0.8,0,1.4,0.3,2,0.8c0.5,0.5,0.8,1.1,0.8,1.9c0,1-0.5,1.7-1.3,2.1
		c1.4,0.3,2.1,1.2,2.1,2.6c0,0.9-0.3,1.6-0.9,2.2c-0.6,0.6-1.3,0.9-2.2,0.9H343.2z M344.3,95.7h1.9c1,0,1.7-0.7,1.7-1.6
		s-0.7-1.6-1.7-1.6h-1.9V95.7z M344.3,100.7h2.3c1.2,0,2.1-0.8,2.1-2c0-0.6-0.2-1-0.6-1.4c-0.4-0.4-0.9-0.6-1.5-0.6h-2.3V100.7z"/>
	<path class="st0" d="M353.8,101.8V91.4h5.9v1.1h-4.7v3.3h4.4v1.1h-4.4v3.9h4.8v1.1H353.8z"/>
	<path class="st0" d="M362.8,101.8l4.7-10.7l4.7,10.7h-1.3l-1.1-2.6h-4.7l-1.1,2.6H362.8z M365.6,98.2h3.7l-1.9-4.4L365.6,98.2z"/>
	<path class="st0" d="M375.9,101.8V91l7.3,8.2v-7.8h1.2v10.7l-7.3-8.2v7.8H375.9z"/>
	<path class="st0" d="M396.8,101.8V91.4h1.2v10.4H396.8z"/>
	<path class="st0" d="M401.8,99.3c0.9,1.1,1.9,1.6,3.2,1.6c1.4,0,2.2-0.8,2.2-1.6c0-0.6-0.2-1-0.5-1.3c-0.3-0.3-0.9-0.7-1.8-1.2
		c-0.5-0.2-0.8-0.4-1.1-0.6s-0.5-0.4-0.8-0.6c-0.6-0.5-0.8-1.1-0.8-1.8c0-1.5,1.2-2.5,3.1-2.5c0.8,0,1.5,0.2,2.1,0.7v1.3
		c-0.6-0.6-1.3-1-2.1-1c-1.2,0-1.9,0.6-1.9,1.5c0,0.4,0.1,0.8,0.4,1c0.3,0.3,0.8,0.6,1.6,1c1,0.5,1.5,0.8,2.1,1.4
		c0.6,0.6,0.9,1.2,0.9,2.1c0,0.7-0.3,1.4-0.9,1.9c-0.6,0.5-1.4,0.8-2.4,0.8c-1.3,0-2.4-0.4-3.2-1.2V99.3z"/>
	<path class="st0" d="M412.3,101.8V91.4h1.2v9.3h4.3v1.1H412.3z"/>
	<path class="st0" d="M420.3,101.8L425,91l4.7,10.7h-1.3l-1.1-2.6h-4.7l-1.1,2.6H420.3z M423.1,98.2h3.7l-1.9-4.4L423.1,98.2z"/>
	<path class="st0" d="M433.4,101.8V91l7.3,8.2v-7.8h1.2v10.7l-7.3-8.2v7.8H433.4z"/>
	<path class="st0" d="M446.3,101.8V91.4h3.3c1.7,0,3,0.5,3.9,1.4c1,1,1.4,2.2,1.4,3.8c0,1.6-0.5,2.8-1.4,3.8c-1,0.9-2.3,1.4-3.9,1.4
		H446.3z M447.5,100.7h2.1c2.8,0,4.3-1.6,4.3-4.1c0-2.5-1.5-4.1-4.3-4.1h-2.1V100.7z"/>
	<path class="st0" d="M467.1,101.8v-9.3h-2.8v-1.1h6.8v1.1h-2.8v9.3H467.1z"/>
	<path class="st0" d="M474.7,101.8V91.4h3.5c0.9,0,1.6,0.3,2.2,0.9c0.6,0.6,0.9,1.3,0.9,2.2c0,1.4-0.8,2.5-2,2.9l2.5,4.3h-1.3
		l-2.3-4.1h0h-2.3v4.1H474.7z M475.8,96.6h2.3c0.6,0,1.1-0.2,1.5-0.6c0.4-0.4,0.6-0.9,0.6-1.5c0-1.1-0.8-2-2-2h-2.3V96.6z"/>
	<path class="st0" d="M484.3,101.8L489,91l4.7,10.7h-1.3l-1.1-2.6h-4.7l-1.1,2.6H484.3z M487.1,98.2h3.7l-1.9-4.4L487.1,98.2z"/>
	<path class="st0" d="M499.4,102.2l-4.5-10.7h1.2l3.2,7.8l3.2-7.8h1.2L499.4,102.2z"/>
	<path class="st0" d="M507.5,101.8V91.4h5.9v1.1h-4.7v3.3h4.4v1.1h-4.4v3.9h4.8v1.1H507.5z"/>
	<path class="st0" d="M517.5,101.8V91.4h1.2v9.3h4.3v1.1H517.5z"/>
	<path class="st0" d="M526.1,100.1h1.5l-1.9,3.6h-0.9L526.1,100.1z"/>
	<path class="st0" d="M539.2,101.8V91.4h1.2v9.3h4.3v1.1H539.2z"/>
	<path class="st0" d="M548.4,101.8V91.4h1.2v9.3h4.3v1.1H548.4z"/>
	<path class="st0" d="M564.9,92.3v1.3c-0.9-0.9-2-1.4-3.3-1.4c-1.2,0-2.2,0.4-3,1.2c-0.8,0.8-1.2,1.8-1.2,3.1c0,1.2,0.4,2.3,1.2,3.1
		c0.8,0.8,1.8,1.2,3,1.2c1.3,0,2.4-0.5,3.3-1.4v1.3c-0.9,0.7-1.9,1.1-3.3,1.1c-1.5,0-2.8-0.5-3.8-1.5c-1-1-1.6-2.3-1.6-3.9
		c0-1.5,0.5-2.8,1.6-3.8c1.1-1,2.3-1.5,3.8-1.5C563,91.2,564,91.6,564.9,92.3z"/>
</g>
<g>
	<g>
		<path class="st1" d="M170,39c0-0.5,0.4-0.9,0.9-0.9h13.3c5.9,0,10.7,4.6,10.7,10.4c0,4.5-3,8.2-7.3,9.9l6.7,12.3
			c0.3,0.6,0,1.4-0.8,1.4h-3.7c-0.5,0-0.8-0.2-1-0.6l-6.4-12.7H175v12.4c0,0.5-0.4,0.9-0.9,0.9h-3.2c-0.5,0-0.9-0.4-0.9-0.9V39z
			 M183.9,54.5c3.2,0,6-2.7,6-6c0-3.2-2.8-5.8-6-5.8h-8.7v11.8H183.9z"/>
		<path class="st1" d="M209.8,49.1c6.3,0,11.5,5.3,11.5,11.7c0,6.4-5.2,11.8-11.5,11.8c-6.4,0-11.6-5.4-11.6-11.8
			C198.2,54.4,203.4,49.1,209.8,49.1z M209.8,67.9c3.8,0,6.7-3.1,6.7-7.2c0-4-2.9-7-6.7-7c-3.8,0-6.8,3-6.8,7
			C203,64.9,206,67.9,209.8,67.9z"/>
		<path class="st1" d="M224,51c-0.3-0.8,0.1-1.5,1-1.5h3.2c0.3,0,0.8,0.2,1,0.6l5.2,15.4h0.1l6.4-15.4c0.2-0.5,0.6-0.6,1.2-0.6h3
			c0.9,0,1.3,0.7,1,1.5l-13.8,31.8c-0.2,0.3-0.5,0.7-0.9,0.7h-3.1c-0.8,0-1.4-0.7-1-1.5l4.6-10.8L224,51z"/>
		<path class="st1" d="M257.6,57.8c2.4,0,4.6,0.7,4.6,0.7c0.1-3.5-0.8-5.1-3.6-5.1c-2.6,0-5.2,0.7-6.3,1.1c-0.7,0.1-1.1-0.3-1.3-0.9
			l-0.4-1.8c-0.1-0.8,0.2-1.1,0.7-1.3c0.4-0.1,3.6-1.3,7.8-1.3c7.3,0,7.9,4.3,7.9,9.9V71c0,0.6-0.5,1.1-1.1,1.1h-1.6
			c-0.4,0-0.7-0.2-0.9-0.8l-0.5-1.5c-1.2,1.2-3.5,2.8-7,2.8c-4.3,0-7.3-2.8-7.3-7.5C248.5,61,251.7,57.8,257.6,57.8z M256.8,68.6
			c2.3,0,4.6-1.6,5.2-2.7v-3.7c-0.3-0.2-2.1-0.8-4.1-0.8c-2.6,0-4.7,1.4-4.7,3.7C253.3,67,254.5,68.6,256.8,68.6z"/>
		<path class="st1" d="M273.8,39.1c0-0.5,0.5-1.1,1.1-1.1h2.7c0.5,0,1.1,0.5,1.1,1.1V71c0,0.6-0.5,1.1-1.1,1.1h-2.7
			c-0.6,0-1.1-0.5-1.1-1.1V39.1z"/>
		<path class="st1" d="M298.5,39c0-0.5,0.4-0.9,0.9-0.9h13.3c5.9,0,10.7,4.6,10.7,10.4c0,4.5-3,8.2-7.3,9.9l6.7,12.3
			c0.3,0.6,0,1.4-0.8,1.4h-3.7c-0.5,0-0.8-0.2-1-0.6L311,58.7h-7.4v12.4c0,0.5-0.4,0.9-0.9,0.9h-3.2c-0.5,0-0.9-0.4-0.9-0.9V39z
			 M312.4,54.5c3.2,0,6-2.7,6-6c0-3.2-2.8-5.8-6-5.8h-8.7v11.8H312.4z"/>
		<path class="st1" d="M338.1,49.1c5.9,0,10.4,4.3,10.4,10.3c0,0.4,0,1.2-0.1,1.6c0,0.6-0.5,1-1,1h-15.7c0,3,2.8,6.1,6.8,6.1
			c2.6,0,4.2-0.9,5.5-1.9c0.5-0.3,0.9-0.5,1.3,0.1l1.3,2c0.4,0.5,0.6,0.9-0.1,1.5c-1.6,1.4-4.6,2.8-8.4,2.8
			c-6.9,0-11.3-5.3-11.3-11.7C326.8,54.5,331.3,49.1,338.1,49.1z M343.6,58.3c-0.1-2.7-2.3-5.1-5.6-5.1c-3.6,0-5.7,2.3-6.1,5.1
			H343.6z"/>
		<path class="st1" d="M352.7,70.3c-0.3-0.2-0.6-0.7-0.4-1.2l1-2.1c0.2-0.5,0.9-0.6,1.5-0.3c1.3,0.7,2.9,1.7,5.6,1.7
			c1.9,0,3-0.9,3-2.2c0-1.5-1.7-2.5-4.9-3.9c-3.5-1.6-6.1-3.4-6.1-7.1c0-2.8,2-6.1,7.5-6.1c3.1,0,5.5,0.9,6.6,1.7
			c0.5,0.4,0.8,1.1,0.5,1.7l-0.8,1.6c-0.3,0.7-1,0.6-1.5,0.4c-1.6-0.7-3.1-1.1-4.9-1.1c-2,0-2.9,1-2.9,2c0,1.5,1.6,2.3,3.9,3.3
			c4.2,1.7,7.3,3.3,7.3,7.4c0,3.5-3,6.6-8.1,6.6C356.5,72.6,353.9,71.1,352.7,70.3z"/>
		<path class="st1" d="M383.3,49.1c5.9,0,10.4,4.3,10.4,10.3c0,0.4-0.1,1.2-0.1,1.6c0,0.6-0.5,1-1,1h-15.7c0.1,3,2.8,6.1,6.8,6.1
			c2.6,0,4.2-0.9,5.5-1.9c0.5-0.3,0.9-0.5,1.3,0.1l1.3,2c0.4,0.5,0.6,0.9-0.1,1.5c-1.6,1.4-4.6,2.8-8.4,2.8
			c-6.9,0-11.3-5.3-11.3-11.7C372.1,54.5,376.5,49.1,383.3,49.1z M388.8,58.3c-0.1-2.7-2.3-5.1-5.6-5.1c-3.6,0-5.7,2.3-6.1,5.1
			H388.8z"/>
		<path class="st1" d="M398.8,50.7c0-0.5,0.5-1.1,1.1-1.1h1.2c0.4,0,0.9,0.3,1,0.8l0.6,2c0.4-0.6,2.7-3.3,6.9-3.3
			c2.2,0,4.9,0.6,4.1,2.1l-1.2,2.4c-0.3,0.6-0.9,0.8-1.4,0.5c-0.3-0.2-1.4-0.4-2.1-0.4c-3.3,0-5.2,2.6-5.3,3V71c0,1-0.6,1.1-1.6,1.1
			h-2.3c-0.6,0-1.1-0.5-1.1-1.1V50.7z"/>
		<path class="st1" d="M415.3,50.9c-0.4-0.7,0-1.3,0.8-1.3h3c0.5,0,0.8,0.2,1,0.6l6,13.7h0.1l6.3-13.7c0.3-0.6,0.9-0.6,1.5-0.6h2.2
			c0.8,0,1.2,0.6,0.8,1.3L427.4,72c-0.1,0.3-0.4,0.6-0.9,0.6h-0.3c-0.5,0-0.8-0.3-1-0.6L415.3,50.9z"/>
		<path class="st1" d="M448.5,57.8c2.4,0,4.6,0.7,4.6,0.7c0.1-3.5-0.8-5.1-3.6-5.1c-2.6,0-5.2,0.7-6.3,1.1c-0.7,0.1-1.1-0.3-1.3-0.9
			l-0.4-1.8c-0.1-0.8,0.2-1.1,0.7-1.3c0.4-0.1,3.6-1.3,7.8-1.3c7.3,0,7.9,4.3,7.9,9.9V71c0,0.6-0.5,1.1-1.1,1.1h-1.6
			c-0.4,0-0.7-0.2-0.9-0.8l-0.5-1.5c-1.2,1.2-3.5,2.8-7,2.8c-4.3,0-7.3-2.8-7.3-7.5C439.4,61,442.6,57.8,448.5,57.8z M447.7,68.6
			c2.3,0,4.6-1.6,5.2-2.7v-3.7c-0.3-0.2-2.1-0.8-4.1-0.8c-2.6,0-4.7,1.4-4.7,3.7C444.2,67,445.4,68.6,447.7,68.6z"/>
		<path class="st1" d="M466,53.7h-2.6c-0.6,0-1.1-0.5-1.1-1.1v-2c0-0.6,0.4-1.1,1.1-1.1h2.6v-6.3c0-0.6,0.5-1.1,1.1-1.1h2.8
			c0.6,0,1,0.5,1,1.1v6.3h6c0.6,0,1.1,0.4,1.1,1.1v2c0,0.5-0.5,1.1-1.1,1.1h-6v11.9c0,1.9,0.7,2.3,1.8,2.3c1.4,0,2.8-0.6,3.6-1.1
			c0.7-0.4,1.1,0,1.3,0.5l0.9,2.3c0.2,0.6,0,1-0.5,1.3c-0.9,0.6-3.6,1.6-6.3,1.6c-4.5,0-5.7-2.7-5.7-6.7V53.7z"/>
		<path class="st1" d="M482.4,41.5c0-1.8,1.4-3.3,3.2-3.3c1.9,0,3.3,1.5,3.3,3.3c0,1.8-1.5,3.3-3.3,3.3
			C483.8,44.8,482.4,43.3,482.4,41.5z M483.1,50.7c0-0.5,0.5-1.1,1.1-1.1h2.7c0.5,0,1.1,0.5,1.1,1.1V71c0,0.6-0.5,1.1-1.1,1.1h-2.7
			c-0.6,0-1.1-0.5-1.1-1.1V50.7z"/>
		<path class="st1" d="M505.1,49.1c6.3,0,11.5,5.3,11.5,11.7c0,6.4-5.2,11.8-11.5,11.8c-6.4,0-11.6-5.4-11.6-11.8
			C493.5,54.4,498.7,49.1,505.1,49.1z M505.1,67.9c3.8,0,6.7-3.1,6.7-7.2c0-4-2.9-7-6.7-7c-3.8,0-6.8,3-6.8,7
			C498.3,64.9,501.3,67.9,505.1,67.9z"/>
		<path class="st1" d="M522.1,50.7c0-0.5,0.5-1.1,1.1-1.1h1.2c0.5,0,0.8,0.2,0.9,0.7l0.7,1.9c0.5-0.6,3.1-3.1,7.6-3.1
			c6.9,0,8.8,4.8,8.8,10.6V71c0,0.6-0.5,1.1-1.1,1.1h-2.7c-0.6,0-1.1-0.5-1.1-1.1V59.5c0-3.6-1.5-5.8-4.5-5.8c-3.6,0-5.6,2.5-6,3.3
			v14c0,0.7-0.4,1.1-1.3,1.1h-2.5c-0.6,0-1.1-0.5-1.1-1.1V50.7z"/>
		<path class="st1" d="M548,70.3c-0.3-0.2-0.6-0.7-0.4-1.2l1-2.1c0.2-0.5,0.9-0.6,1.5-0.3c1.3,0.7,2.9,1.7,5.6,1.7
			c1.9,0,3-0.9,3-2.2c0-1.5-1.7-2.5-4.9-3.9c-3.5-1.6-6.1-3.4-6.1-7.1c0-2.8,2-6.1,7.5-6.1c3.1,0,5.5,0.9,6.6,1.7
			c0.5,0.4,0.8,1.1,0.5,1.7l-0.8,1.6c-0.3,0.7-1,0.6-1.5,0.4c-1.6-0.7-3.1-1.1-4.9-1.1c-2,0-2.9,1-2.9,2c0,1.5,1.6,2.3,3.9,3.3
			c4.2,1.7,7.3,3.3,7.3,7.4c0,3.5-3,6.6-8.1,6.6C551.9,72.6,549.3,71.1,548,70.3z"/>
	</g>
	<g>
		<path class="st1" d="M571.4,56.3c-0.7-0.7-1-1.5-1-2.6c0-1,0.3-1.9,1-2.6s1.5-1,2.6-1c1,0,1.9,0.3,2.6,1s1.1,1.5,1.1,2.6
			c0,1-0.4,1.9-1.1,2.6c-0.7,0.7-1.6,1-2.6,1C572.9,57.3,572.1,57,571.4,56.3z M577,53.7c0-1.8-1.3-3-3-3c-1.7,0-3,1.2-3,3
			c0,1.7,1.3,3,3,3C575.7,56.7,577,55.5,577,53.7z M572.6,55.7v-4.2h1.5c0.8,0,1.3,0.6,1.3,1.3c0,0.6-0.3,1-0.7,1.2l1,1.7h-0.7
			l-0.9-1.5h-0.7v1.5H572.6z M573.3,53.6h0.8c0.4,0,0.7-0.3,0.7-0.7c0-0.4-0.3-0.7-0.7-0.7h-0.8V53.6z"/>
	</g>
</g>
<g>
	<path class="st1" d="M100.4,28.4l0,2l4.7-0.3l-0.1-1.3c-0.1-3.8-3.3-6.8-7.1-6.6l-12,0.5c-3.8,0.2-6.9,3.4-6.8,7.2l0,3.5l4.8-0.9
		L84,29.1c0-1.3,1.3-2.3,2.5-1.8c3.7,1.4,7.8,1.2,11.4-0.5C99.1,26.2,100.4,27.1,100.4,28.4L100.4,28.4z"/>
	<path class="st1" d="M136.2,87.5c-0.9-0.1-1.9-0.4-2.8-0.3c-0.5,0.1-1,0.3-1.5,0.4c-0.5,0.1-1.1,0-1.5-0.4c0,0-0.1-0.1-0.1-0.2
		c-1.3,0.5-2.7,0.7-4.1,0.6c-0.6,0-1.3-0.1-1.9,0c-0.5,0.1-0.9,0.4-1.3,0.5c-0.4,0.1-0.9,0-1.2-0.3c-1.3,1.4-3,2.2-4.7,2.5
		c-1.8,0.3-3.6,0.2-5.3,0.2c-0.9,0-1.9,0-2.8,0.4c-1,0.4-1.9,1.1-2.9,1.4c-1.4,0.4-2.9,0-4.3-0.3c-1-0.2-2.1-0.4-3.1-0.3
		c-0.6,0.1-1.1,0.2-1.7,0.2c-0.5-0.1-1.1-0.3-1.4-0.9c-1.2,1.1-2.8,1.3-4.4,1.4c-1,0.1-1.9,0.2-2.9,0c-1.5-0.2-2.9-0.9-4.4-0.8
		c-1.1,0.1-2.2,0.6-3.3,0.5c-0.5,0-1.1-0.2-1.6-0.3c-1.6-0.3-3.3,0.1-4.9-0.2c-1.4-0.2-3.1-0.6-4.5-0.4c0.1,0.3-0.1,0.5-0.3,0.7
		c-0.2,0.1-0.4,0.2-0.6,0.2c-0.5,0.2-1,0.7-1.5,0.9c-1.4,0.5-2.8-1.5-4.3-1.2c-1.2,0.9-2.5,1.7-3.8,1.7c-0.6,0-1.3-0.1-1.9-0.1
		c-0.6,0.1-1.2,0.4-1.8,0.4c-0.8,0.1-1.6-0.2-2.4-0.3c-1.3-0.1-2.5,0.6-3.8,0.4c-0.2,0-0.4-0.1-0.6-0.1c0.1,0.6,0.2,1.2,0.2,1.8
		c1.6,12.6,12.3,12.2,12.5,12.2c5.2,0,58.3,0,68.7,0c10.9,0,10.9-8.5,10.9-8.5s0.4-5.3,1-12.8c-0.3,0-0.6-0.1-0.9-0.1
		C139.5,86.8,137.9,87.6,136.2,87.5z"/>
	<path class="st0" d="M45.2,69c0.9,6.1,2.6,16.8,3.3,22.3c1.6-0.1,2.8-0.9,4.3-1c1,0,1.8,0.6,3.3,0.3c0.8-0.2,1.6,0.2,2.5,0.3
		c1.5,0.1,2.9-1,4.4-1.4c0.3-0.1,1.5,0.5,1.8,0.5c2.3,0.7,3.1-0.6,5-0.7c2-0.2,4,0.3,5.8,0.4c1.1,0.1,2.2,0.1,3.3,0
		c0.8-0.1,1.6-0.3,2.5-0.4c0.7-0.1,1.3-0.1,2-0.1c1.9-0.1,3.7-0.1,5.6-0.2c2.2-0.1,4-0.2,6.2,0.2c-0.6-0.1,0.5-0.6,0.5-0.6
		c1.7,0,3.4,0.6,5.2,0.6c0.8,0,1.6,0,2.4-0.1c1.6-0.2,3.2-0.8,4.8-1.3c4.5-1.3,9.1-1.9,13.8-1.6c0.8-0.4,1.6-0.6,2.4-0.7
		c0.6,0,1.2,0,1.7-0.1c0.8-0.1,1.6-0.4,2.4-0.6c0.8-0.1,1.6-0.1,2.2,0.4c0.6,0.3,1.3,0.2,2,0c2.1-0.4,4.2-0.7,6.3-1
		c0.6-0.1,1.2-0.1,1.8-0.1c0.5,0,1.2,0.1,1.7,0.2c0.3-3.7,0.3-4.1,0.7-8.3L45.2,69z"/>
	<path class="st2" d="M115.3,39.5c0-0.2,0-0.3,0-0.5c-2.1,0.6-4.2,1.4-6.2,2.3c-1,2.1-1.8,4.3-2.4,6.6c4.1-3,8.6-5.4,13.3-7.3
		c-0.2-0.8-0.3-1.7-0.5-2.7c-1.4,0.3-2.8,0.7-4.1,1.1C115.4,39.1,115.3,39.3,115.3,39.5z"/>
	<path class="st2" d="M112.2,31.3c-0.2,0-0.4,0-0.6,0c-0.1,0.1-0.1,0.1-0.2,0.2c0.2-0.1,0.5-0.1,0.7-0.1
		C112.2,31.4,112.2,31.4,112.2,31.3z"/>
	<path class="st2" d="M119.3,33.4c-0.5,0.1-1,0.1-1.5,0.2c-0.2,0.4-0.5,0.8-0.7,1.2c0.7-0.2,1.5-0.3,2.2-0.5
		C119.3,33.9,119.3,33.6,119.3,33.4z"/>
	<path class="st2" d="M121.8,33.7c0-0.2,0-0.4-0.1-0.6c-0.7,0-1.3,0.1-2,0.2l0.1,0.8C120.5,34,121.1,33.9,121.8,33.7z"/>
	<path class="st2" d="M115.9,35c0.1-0.4,0.3-0.9,0.4-1.3c-0.9,0.1-1.8,0.3-2.8,0.4c-0.5,0.6-1,1.3-1.5,2
		C113.4,35.7,114.6,35.4,115.9,35z"/>
	<path class="st2" d="M108.4,38.8c-1,0.3-2.1,0.6-3.1,0.9c-0.6,1-1.1,2-1.6,3c1.3-1,2.8-1.9,4.2-2.6C108,39.6,108.2,39.2,108.4,38.8
		z"/>
	<path class="st2" d="M97.2,38.9c-1.5,0.6-3,1.3-4.5,2c-1.5,1.7-2.8,3.5-4.1,5.3C88,47,87.4,48,86.8,49c2.6-1.9,5.4-3.6,8.3-5
		c0,0,0.1-0.1,0.1-0.1C95.7,42.1,96.4,40.5,97.2,38.9z"/>
	<path class="st2" d="M126.3,33c-0.1,0.1-0.3,0.2-0.4,0.2c1.1-0.1,2.3-0.2,3.5-0.2C128.3,32.9,127.3,32.9,126.3,33z"/>
	<path class="st2" d="M120.5,40.4c5.2-2,10.6-3.3,16.2-3.8c-5.5-0.5-11.1-0.1-16.5,1.1L120.5,40.4z"/>
	<path class="st2" d="M107.8,31.7c-0.3,0-0.7,0.1-1,0.1c-0.5,0.5-0.9,0.9-1.4,1.4c0.6-0.2,1.2-0.4,1.8-0.6
		C107.4,32.4,107.6,32.1,107.8,31.7z"/>
	<path class="st2" d="M98.9,36c0.7-1.1,1.5-2.1,2.3-3.1c-0.3,0.1-0.6,0.1-0.9,0.2c-1.7,1.5-3.3,3-4.8,4.6
		C96.6,37.1,97.7,36.5,98.9,36z"/>
	<path class="st2" d="M87.4,42.8c1.2-0.8,2.3-1.6,3.5-2.3c0.9-1.3,1.9-2.5,2.9-3.7c0.7-0.8,1.4-1.7,2.2-2.5
		c-0.2,0.1-0.5,0.2-0.7,0.2C92.4,37,89.7,39.7,87.4,42.8z"/>
	<path class="st2" d="M110.8,38.2c-0.1,0.2-0.2,0.4-0.3,0.6c0.8-0.4,1.6-0.7,2.5-1C112.2,37.9,111.5,38,110.8,38.2z"/>
	<path class="st2" d="M97.6,42.5c2-1.1,4.1-2.1,6.2-3.1c0.4-1.1,1-2.3,1.5-3.4c-1.1,0.3-2.2,0.7-3.3,1c-0.5,0.6-1,1.2-1.5,1.9
		C99.5,40.1,98.5,41.3,97.6,42.5z"/>
	<path class="st2" d="M109,37.2c0.3-0.6,0.5-1.2,0.8-1.8c-1,0.3-1.7,0.3-1.7,0.3l1.1-0.8c-0.3,0.1-0.7,0.2-1,0.2
		c-0.8,1-1.5,2.1-2.2,3.1C107.1,38,108.1,37.6,109,37.2z"/>
	<g>
		<path class="st1" d="M144.1,63.6c0.1-0.9,0.2-1.8,0.3-2.7c-3.6,1.4-7.1,3.2-10.2,5.5C137.5,65.3,140.8,64.4,144.1,63.6z"/>
		<path class="st1" d="M122,64.4c6.7-5.4,14.7-9.1,23.1-10.9c0.2-2,0.4-3.9,0.6-5.5C136.2,50.3,127.4,56.1,122,64.4z"/>
		<path class="st1" d="M127.6,64.5c5.3-3.1,11.1-5.2,17-6.4c0.1-1.2,0.2-2.4,0.4-3.6C138.4,56.1,131.9,59.2,127.6,64.5z"/>
		<path class="st1" d="M141,70.9c0.8-0.2,1.7-0.3,2.5-0.5c0-0.3,0.1-0.6,0.1-0.9C142.7,69.9,141.9,70.4,141,70.9z"/>
		<path class="st1" d="M110.4,63.3c10.6-7.6,22.6-14.5,35.4-16c0.2-1.4,0.2-2.6,0.2-3.7C132.1,44.8,118.8,52.1,110.4,63.3z"/>
		<path class="st1" d="M73.1,48c4.8-5,10.7-8.8,17.1-11.6c0,0.1-0.1,0.1-0.2,0.2c-2.2,2.5-4.1,5.3-5.6,8.3c-2.3,1.7-4.5,3.4-6.7,5.1
			c2-1.6,4.2-3.1,6.4-4.5c-0.8,1.8-1.4,3.7-1.8,5.7c1.2-2.5,2.5-4.8,4.1-7.1c1-0.6,2.1-1.2,3.2-1.8c-1.4,2.2-2.6,4.5-3.3,6.9
			c-1.3,1-2.6,2-3.9,3c1.3-0.9,2.5-1.9,3.8-2.7c-0.2,0.6-0.3,1.2-0.4,1.8c0.2-0.7,0.5-1.4,0.8-2c2.7-1.9,5.6-3.7,8.5-5.4
			c-2.9,1.5-5.6,3.2-8.3,5c0.5-1,1.1-1.9,1.8-2.8c1.3-1.8,2.7-3.6,4.1-5.3c1.5-0.7,3-1.3,4.5-2c-0.8,1.6-1.5,3.3-2,5
			c0,0-0.1,0.1-0.1,0.1c0,0,0.1,0,0.1-0.1c-0.5,1.7-0.8,3.4-1,5.2c0.6-2.3,1.8-4.3,3.2-6.2c2-0.9,4-1.7,6-2.5
			c-0.4,1.1-0.8,2.2-1.1,3.3c-1.7,1.3-3.3,2.8-4.8,4.4c1.4-1.1,2.9-2.1,4.4-3c-0.2,1-0.4,1.9-0.6,2.9c0.4-1.1,0.8-2.3,1.3-3.4
			c1.4-0.8,2.9-1.6,4.3-2.3c0,0.1-0.1,0.2-0.1,0.3c-0.6,1.8-1,3.8-0.7,5.7C102.5,51,99,54.3,95.9,58c6.9-5.1,14.1-10,22-13.5
			c0.9-0.4,1.8-0.8,2.7-1.2c0.1,0.4,0.2,0.6,0.2,0.6l-0.1-0.6c7.1-2.9,14.6-4.6,22.2-4.4c-7.3,1.1-14.1,4.3-20.1,8.5
			c-6.1,4.2-11.4,9.2-16.8,14.2c11-10.1,25.2-17.6,40-18.1c-0.6-9.6-8.6-11.2-13.6-11.7c-13.2-1.3-26.2-0.7-37.9,0.7
			c-1,0.8-2,1.7-2.9,2.6C84.7,38.1,78.4,42.6,73.1,48z M103.7,42.7c0.5-1,1.1-2,1.6-3c1-0.3,2-0.6,3.1-0.9c-0.2,0.4-0.3,0.8-0.5,1.3
			C106.4,40.9,105,41.7,103.7,42.7z M136.6,36.6c-5.5,0.5-11,1.8-16.2,3.8l-0.3-2.7C125.6,36.6,131.1,36.2,136.6,36.6z M126.3,33
			c1,0,2,0,3,0c-1.2,0-2.3,0.1-3.5,0.2C126,33.1,126.1,33,126.3,33z M121.7,33.2c0,0.2,0,0.4,0.1,0.6c-0.7,0.1-1.3,0.2-2,0.4
			l-0.1-0.8C120.4,33.3,121.1,33.2,121.7,33.2z M120,40.6c-4.7,1.9-9.2,4.3-13.3,7.3c0.6-2.3,1.4-4.5,2.4-6.6c2-0.9,4.1-1.6,6.2-2.3
			c0,0.2,0,0.3,0,0.5c0-0.2,0.1-0.3,0.1-0.5c1.4-0.4,2.7-0.8,4.1-1.1C119.7,38.9,119.9,39.8,120,40.6z M117.7,33.5
			c0.5-0.1,1-0.1,1.5-0.2c0,0.3,0,0.6,0,0.9c-0.7,0.2-1.5,0.3-2.2,0.5C117.3,34.3,117.5,33.9,117.7,33.5z M116.3,33.7
			c-0.2,0.4-0.3,0.9-0.4,1.3c-1.3,0.3-2.5,0.7-3.8,1.1c0.5-0.7,1-1.3,1.5-2C114.5,34,115.4,33.9,116.3,33.7z M110.8,38.2
			c0.7-0.2,1.4-0.3,2.1-0.5c-0.8,0.3-1.7,0.7-2.5,1C110.6,38.6,110.7,38.4,110.8,38.2z M109.3,35c0,0,0.9-0.3,0.6,0.4
			c-0.3,0.6-0.6,1.2-0.8,1.8c-1,0.4-2,0.8-2.9,1.2c0.7-1.1,1.4-2.1,2.2-3.1C108.6,35.2,109,35.1,109.3,35z M105.3,36
			c-0.5,1.1-1.1,2.2-1.5,3.4c-2.1,0.9-4.1,2-6.2,3.1c0.9-1.2,1.8-2.4,2.8-3.5c0.5-0.6,1-1.2,1.5-1.9C103.1,36.7,104.2,36.4,105.3,36
			z M100.3,33.1c0.3-0.1,0.6-0.1,0.9-0.2c-0.8,1-1.6,2-2.3,3.1c-1.1,0.6-2.3,1.1-3.4,1.8C97,36.1,98.6,34.6,100.3,33.1z M96,34.3
			c-0.8,0.8-1.5,1.6-2.2,2.5c-1,1.2-1.9,2.4-2.9,3.7c-1.2,0.7-2.3,1.5-3.5,2.3c2.3-3,4.9-5.8,7.8-8.3C95.5,34.4,95.7,34.4,96,34.3z"
			/>
		<g>
			<path class="st1" d="M44,60c0.1-0.9,0.1-1.8,0-2.7c0-1.1-0.1-2.3-0.3-3.4c-0.1-0.5-0.2-1.1-0.3-1.6c2.2,5.7,3.1,12,2.3,18.1
				c1.4-4.8,1.8-9.9,1.1-14.9c-0.1-0.6-0.2-1.2-0.4-1.8c1.6,3.2,2.5,6.8,3.3,10.3c0.8,3.2,1.6,6.6,1,9.8c2.1-5.6,2-11.9-0.2-17.4
				c0,0,0.1,0,0.1,0c2.6,5.5,4.5,11.3,5.5,17.3c0.3,1.6,0.5,3.3,0.2,4.9c1.3-4.5,0.4-9.3-0.6-13.9c-0.4-1.5-0.8-3-1.3-4.4
				c3.1,6,4.7,12.7,4.6,19.4c1.2-4.5,0.9-9.3-0.4-13.8c-1.3-4.5-3.6-8.6-6.3-12.4c-1.8-2.5-6.6-7.4-6.7-7.7
				c-3.6,4.1-2.3,9.4-2.3,9.4s0.3,2,0.7,5.1C44,60.2,44,60.1,44,60C44,59.9,44,59.9,44,60z"/>
			<path class="st1" d="M49.5,43c4.2,5,10.3,8.1,16.6,10c-3.5-1.5-6.2-4.3-8.5-7.2c-1.2-1.4-2.2-3-3.4-4.4c-1.3,0.4-2.4,0.8-3.3,1.1
				C50.4,42.6,50,42.8,49.5,43z"/>
			<path class="st1" d="M73,43.1c-2-2.1-4.3-3.9-6.8-5.4c-0.8,0.2-1.6,0.4-2.4,0.6C67.3,39.3,70.5,40.7,73,43.1z"/>
			<path class="st1" d="M61.7,45c3.6,2,7.6,3.5,10.5,6.4c-2.9-2.5-5-5.8-7.6-8.6c-1.2-1.3-2.5-2.6-3.9-3.6c-1.9,0.6-3.7,1.1-5.2,1.6
				C57.5,42.4,59.6,43.8,61.7,45z"/>
			<path class="st1" d="M60.7,55.5c-3-1-5.1-3.7-6.9-6.3c-1.5-2-2.9-4.1-4.4-6.1c-1.2,0.6-2.2,1.2-3,1.9
				C49.8,49.9,54.9,53.7,60.7,55.5z"/>
		</g>
	</g>
	<linearGradient id="SVGID_1_" gradientUnits="userSpaceOnUse" x1="40.4673" y1="30.3211" x2="40.4673" y2="69.4832">
		<stop  offset="0" style="stop-color:#FDBA00"/>
		<stop  offset="0.2268" style="stop-color:#FDBA15"/>
		<stop  offset="0.347" style="stop-color:#FDB11A"/>
		<stop  offset="0.7565" style="stop-color:#FC9728"/>
		<stop  offset="1" style="stop-color:#FC8D2D"/>
	</linearGradient>
	<path class="st3" d="M41.9,55.4C41,51.9,41.7,44.1,50.5,41c1.4-0.5,4-1.4,7.6-2.5c-3.6-4.9-9.3-8.1-15.9-8.1
		c-10.8,0-19.6,8.8-19.6,19.6c0,10.8,8.8,19.6,19.6,19.6c0.5,0,1.1,0,1.6-0.1C42.8,61.6,41.9,55.5,41.9,55.4z"/>
</g>
</svg>
