<svg id="Layer_1" data-name="Layer 1" xmlns="http://www.w3.org/2000/svg" viewBox="0 0 139.99 139.99"><defs><style>.cls-1{fill:#fff;}</style></defs><title>promotions</title><path class="cls-1" d="M68.92,70.06a4.2,4.2,0,1,0-6,.1A4.23,4.23,0,0,0,68.92,70.06Z" transform="translate(-5 -5)"/><path class="cls-1" d="M56.81,100.88a4.23,4.23,0,1,0,6,.09A4.23,4.23,0,0,0,56.81,100.88Z" transform="translate(-5 -5)"/><path class="cls-1" d="M139.7,42.79L107.21,10.29a18.76,18.76,0,0,0-25-1l-71.56,61a15.47,15.47,0,0,0-.93,23.09l46.93,46.93a15.46,15.46,0,0,0,23.09-.93l61-71.56A18.74,18.74,0,0,0,139.7,42.79ZM59.57,60.71a9.07,9.07,0,1,1,0,12.82A9,9,0,0,1,59.57,60.71Zm6.7,49.63a9.07,9.07,0,1,1,0-12.82A9.07,9.07,0,0,1,66.26,110.33ZM87.82,79.75L40,94.85a1.82,1.82,0,0,1-1.28-.33L37.2,93A1.21,1.21,0,0,1,37.67,91l47.77-15.2a1.6,1.6,0,0,1,1.28.33l1.57,1.57A1.21,1.21,0,0,1,87.82,79.75Zm14.18-19A12.76,12.76,0,1,1,114.76,48,12.78,12.78,0,0,1,102,60.76Z" transform="translate(-5 -5)"/></svg>