<?xml version="1.0" encoding="UTF-8" standalone="no"?>
<svg width="86px" height="86px" viewBox="0 0 86 86" version="1.1" xmlns="http://www.w3.org/2000/svg" xmlns:xlink="http://www.w3.org/1999/xlink">
    <!-- Generator: Sketch 50.2 (55047) - http://www.bohemiancoding.com/sketch -->
    <title>Group</title>
    <desc>Created with Sketch.</desc>
    <defs></defs>
    <g id="iconos" stroke="none" stroke-width="1" fill="none" fill-rule="evenodd">
        <g id="Desktop" transform="translate(-599.000000, -470.000000)" fill="#FFFFFF" fill-rule="nonzero">
            <g id="Group" transform="translate(599.000000, 470.000000)">
                <path d="M79.4,55.6 C81,51.2 81.9,46.7 81.9,42 C81.9,31.7 77.9,22 70.6,14.8 C63.3,7.5 53.7,3.5 43.4,3.5 C38.7,3.5 34.2,4.3 29.9,5.9 C26.7,2.4 22.3,0.5 17.6,0.5 C8.4,0.5 0.9,8 0.9,17.2 C0.9,22.1 3.1,26.8 6.8,30 C5.5,33.9 4.8,38 4.8,42.1 C4.8,52.4 8.8,62.1 16.1,69.3 C23.4,76.6 33,80.6 43.3,80.6 C47.4,80.6 51.5,79.9 55.5,78.6 C58.6,82.9 63.7,85.6 69.1,85.6 C78.3,85.6 85.8,78.1 85.8,68.9 C85.8,63.5 83.4,58.7 79.4,55.6 Z M69.1,81.8 C64.5,81.8 60.2,79.3 57.8,75.3 C57.5,74.7 56.9,74.4 56.2,74.4 C56,74.4 55.8,74.4 55.6,74.5 C51.6,76 47.4,76.8 43.3,76.8 C34,76.8 25.2,73.2 18.6,66.6 C12,60 8.4,51.2 8.4,41.9 C8.4,37.8 9.1,33.8 10.6,29.8 C10.9,29 10.6,28.2 10,27.7 C6.5,25.2 4.5,21.3 4.5,17 C4.5,9.8 10.4,3.9 17.6,3.9 C21.7,3.9 25.4,5.7 27.9,9 C28.4,9.6 29.3,9.9 30,9.6 C34.2,7.8 38.7,6.9 43.4,6.9 C52.7,6.9 61.5,10.5 68.1,17.1 C74.7,23.7 78.3,32.5 78.3,41.8 C78.3,46.5 77.4,51.1 75.6,55.4 C75.3,56.2 75.5,57.1 76.3,57.6 C80.1,60 82.3,64.2 82.3,68.6 C82.2,75.9 76.3,81.8 69.1,81.8 Z" id="Shape"></path>
                <path d="M44,64 C55.5,64 62.3,57 62.3,50.3 C62.3,43.3 57.4,39.3 45.8,37.1 C38.4,35.7 34.2,33.6 33.5,30.9 C33.2,29.9 33.3,28.4 35.1,26.8 C37.3,24.8 41.9,23.8 45.6,24.4 C48.1,24.8 49.9,26 50.8,27.8 C53.3,32.4 54.8,33.6 57.4,33 C58.3,32.8 58.9,32.2 59.4,31.3 C60.1,29.8 60,27.8 59.2,26.3 C58.2,24.3 53.5,19.1 44.2,19.1 C39.1,19.1 34.4,20.1 31,21.9 C27.1,24 25.1,27 25.1,30.8 C25.1,34.6 26.9,37.7 30.5,40.1 C34.3,42.6 39.2,43.7 42.6,44.2 C49.2,45.1 51.8,47.4 52.8,49.1 C53.5,50.4 53.6,51.8 53.1,53.1 C51.8,56.2 47.7,59.1 41.5,58.4 C34.4,57.7 32,51.3 31.6,50 C31,48.2 28.9,48 28,48 C27.8,48 27.7,48 27.6,48 C27.2,48 25.8,48.4 25,49.7 C24.2,50.9 24.2,52.4 24.8,54.4 C26.9,60.5 33.7,64 44,64 Z" id="Shape"></path>
            </g>
        </g>
    </g>
</svg>