<?xml version="1.0" encoding="UTF-8" standalone="no"?>
<svg width="92px" height="92px" viewBox="0 0 92 92" version="1.1" xmlns="http://www.w3.org/2000/svg" xmlns:xlink="http://www.w3.org/1999/xlink">
    <!-- Generator: Sketch 50.2 (55047) - http://www.bohemiancoding.com/sketch -->
    <title>Group</title>
    <desc>Created with Sketch.</desc>
    <defs></defs>
    <g id="iconos" stroke="none" stroke-width="1" fill="none" fill-rule="evenodd">
        <g id="Desktop" transform="translate(-345.000000, -467.000000)" fill="#FFFFFF" fill-rule="nonzero">
            <g id="Group" transform="translate(345.000000, 467.000000)">
                <path d="M78.7,13.6 C70.1,5 58.6,0.2 46.4,0.2 C34.2,0.2 22.7,4.9 14.1,13.6 C5.5,22.2 0.7,33.7 0.7,45.9 C0.7,53.3 2.5,60.6 5.9,67.1 C8.8,72.7 13,77.7 17.9,81.6 C18.8,82.4 20.2,83.4 21.3,84.1 C28.7,89 37.3,91.6 46.3,91.6 C55.3,91.6 63.9,89 71.3,84.1 C72.2,83.5 74,82.3 74.7,81.6 C79.7,77.6 83.8,72.7 86.7,67.1 C90.1,60.6 91.9,53.3 91.9,45.9 C92,33.7 87.3,22.3 78.7,13.6 Z M70.5,79.6 C63.4,84.7 55.1,87.4 46.3,87.4 C37.6,87.4 29.2,84.7 22.1,79.6 C11.3,71.8 4.8,59.2 4.8,45.9 C4.8,23.1 23.4,4.5 46.2,4.5 C69,4.5 87.6,23.1 87.6,45.9 C87.8,59.2 81.3,71.8 70.5,79.6 Z" id="Shape"></path>
                <path d="M46.4,24.6 C34.7,24.6 25.1,34.2 25.1,45.9 C25.1,52.7 28.4,59.2 34,63.2 C37.6,65.8 41.9,67.2 46.4,67.2 C50.9,67.2 55.2,65.8 58.8,63.2 C64.4,59.2 67.7,52.7 67.7,45.9 C67.7,34.2 58.1,24.6 46.4,24.6 Z M56.3,59.8 C53.4,61.9 49.9,63 46.4,63 C42.8,63 39.4,61.9 36.5,59.8 C32,56.6 29.4,51.4 29.4,45.9 C29.4,36.5 37.1,28.8 46.5,28.8 C55.9,28.8 63.6,36.5 63.6,45.9 C63.4,51.4 60.8,56.6 56.3,59.8 Z" id="Shape"></path>
                <path d="M46.4,35 C40.4,35 35.5,39.9 35.5,45.9 C35.5,49.4 37.2,52.7 40.1,54.8 C42,56.1 44.2,56.8 46.5,56.8 C48.8,56.8 51,56.1 52.9,54.8 C55.8,52.8 57.5,49.4 57.5,45.9 C57.3,39.9 52.4,35 46.4,35 Z M50.3,51.4 C49.2,52.2 47.8,52.7 46.4,52.7 C45,52.7 43.6,52.3 42.5,51.4 C40.7,50.1 39.7,48.1 39.7,46 C39.7,42.3 42.7,39.3 46.4,39.3 C50.1,39.3 53.1,42.3 53.1,46 C53.1,48.1 52,50.1 50.3,51.4 Z" id="Shape"></path>
                <path d="M67.2,14.9 C61.7,11.2 55.2,9 48.5,8.6 C47.3,8.5 46.3,9.4 46.3,10.6 C46.2,11.8 47.1,12.8 48.3,12.8 C54.2,13.1 60,15.1 64.9,18.4 C65.3,18.6 65.7,18.8 66.1,18.8 C66.8,18.8 67.4,18.5 67.9,17.9 C68.5,16.9 68.2,15.6 67.2,14.9 Z" id="Shape"></path>
                <path d="M28.7,17.5 C29.1,17.5 29.4,17.4 29.8,17.2 C32.5,15.6 35.5,14.4 38.6,13.7 C39.7,13.4 40.4,12.3 40.2,11.1 C39.9,10 38.8,9.3 37.6,9.5 C34.1,10.3 30.8,11.7 27.7,13.5 C26.7,14.1 26.3,15.4 26.9,16.4 C27.3,17.1 28,17.5 28.7,17.5 Z" id="Shape"></path>
            </g>
        </g>
    </g>
</svg>