<?xml version="1.0" encoding="UTF-8" standalone="no"?>
<svg width="91px" height="91px" viewBox="0 0 91 91" version="1.1" xmlns="http://www.w3.org/2000/svg" xmlns:xlink="http://www.w3.org/1999/xlink">
    <!-- Generator: Sketch 50.2 (55047) - http://www.bohemiancoding.com/sketch -->
    <title>Group</title>
    <desc>Created with Sketch.</desc>
    <defs></defs>
    <g id="iconos" stroke="none" stroke-width="1" fill="none" fill-rule="evenodd">
        <g id="Desktop" transform="translate(-579.000000, -615.000000)" fill="#FFFFFF" fill-rule="nonzero">
            <g id="Group" transform="translate(579.000000, 615.000000)">
                <path d="M20.5,27.5 C20.4,38.8 25,49.8 32.9,57.8 C40.8,65.7 51.6,70.2 62.8,70.2 C62.9,70.2 63,70.2 63.1,70.2 C63.6,70.1 64.8,69.7 65.2,69.4 L68.9,65.7 C70,64.6 70.5,62.4 70,60.9 L69.7,60.1 C69.2,58.6 67.5,56.9 65.9,56.5 L59.2,54.7 C57.7,54.3 55.4,54.9 54.3,56 L51.5,58.8 L51,58.7 C41.8,56.2 34.6,49 32.1,39.8 L32,39.3 L34.8,36.5 C35.9,35.4 36.5,33.1 36.1,31.6 L34.3,24.9 C33.9,23.4 32.2,21.6 30.7,21.1 L29.9,20.8 C28.4,20.3 26.2,20.8 25.1,21.9 L21.4,25.6 C21,25.8 20.7,26.9 20.5,27.5 Z" id="Shape"></path>
                <path d="M77.2,13.5 C68.7,5 57.3,0.3 45.3,0.3 C33.3,0.3 21.9,5 13.4,13.5 C4.9,22 0.2,33.3 0.2,45.3 C0.2,52.6 2,59.8 5.3,66.2 C8.2,71.7 12.3,76.7 17.2,80.6 C18.1,81.4 19.4,82.3 20.6,83.1 C27.9,87.9 36.4,90.5 45.3,90.5 C54.2,90.5 62.7,88 70,83.1 C70.9,82.5 72.7,81.3 73.4,80.6 C78.3,76.7 82.4,71.8 85.3,66.2 C88.7,59.8 90.4,52.6 90.4,45.3 C90.4,33.3 85.7,22 77.2,13.5 Z M69.2,78.6 C62.2,83.6 54,86.3 45.4,86.3 C36.8,86.3 28.5,83.6 21.6,78.6 C10.9,70.9 4.5,58.5 4.5,45.4 C4.5,22.8 22.8,4.5 45.4,4.5 C68,4.5 86.3,22.8 86.3,45.4 C86.2,58.5 79.8,70.9 69.2,78.6 Z" id="Shape"></path>
            </g>
        </g>
    </g>
</svg>