<?xml version="1.0" encoding="UTF-8" standalone="no"?>
<svg width="137px" height="140px" viewBox="0 0 137 140" version="1.1" xmlns="http://www.w3.org/2000/svg" xmlns:xlink="http://www.w3.org/1999/xlink">
    <!-- Generator: Sketch 50.2 (55047) - http://www.bohemiancoding.com/sketch -->
    <title>Group 2</title>
    <desc>Created with Sketch.</desc>
    <defs></defs>
    <g id="iconos" stroke="none" stroke-width="1" fill="none" fill-rule="evenodd">
        <g id="Desktop" transform="translate(-450.000000, -287.000000)" fill="#FFFFFF" fill-rule="nonzero">
            <g id="Group-2" transform="translate(450.000000, 287.000000)">
                <path d="M130.21,7.18 C126.025602,2.98830948 120.332608,0.653461361 114.41,0.7 L22.79,0.7 C16.8643734,0.713363149 11.1777955,3.03822275 6.94,7.18 C2.74830948,11.3643978 0.413461361,17.0573917 0.46,22.98 L0.46,117.38 C0.48635437,123.288306 2.81025402,128.954604 6.94,133.18 C11.1243978,137.371691 16.8173917,139.706539 22.74,139.66 L114.4,139.66 L114.4,139.82 C120.308306,139.793646 125.974604,137.469746 130.2,133.34 C134.391691,129.155602 136.726539,123.462608 136.68,117.54 L136.68,23.03 C136.669312,17.1057805 134.348118,11.4193948 130.21,7.18 Z M128.31,42.43 L128.31,117.49 C128.260902,125.151851 122.061851,131.350902 114.4,131.4 L22.79,131.4 C19.1162164,131.397548 15.5959624,129.926089 13.0132745,127.313348 C10.4305867,124.700607 8.99995066,121.163566 9.04,117.49 L9.04,23.03 C9.01112457,19.4072341 10.4547607,15.928071 13.04,13.39 C15.6192321,10.7854745 19.1245919,9.30783052 22.79,9.28 L114.45,9.28 C122.09236,9.35077518 128.265737,15.5375047 128.32,23.18 L128.32,42.47 L128.31,42.43 Z" id="Shape"></path>
                <path d="M113.72,62.37 C113.253888,62.3699091 112.79569,62.4904874 112.39,62.72 L96.06,70.97 C94.9566612,67.3980821 92.0799321,64.6538339 88.46,63.72 C94.727402,58.0099021 96.8376359,49.0332077 93.7707194,41.1288059 C90.7038028,33.224404 83.0913367,28.0201279 74.6128099,28.0314665 C66.1342831,28.0428051 58.535764,33.2674235 55.49,41.18 C52.664932,38.8138049 49.0950794,37.5211499 45.41,37.53 C39.1389412,37.6043095 33.4895078,41.3355243 30.959404,47.0740149 C28.4293003,52.8125056 29.4850932,59.5000584 33.66,64.18 C29.498011,65.7751289 26.7099934,69.7241623 26.6,74.18 L26.6,97.47 C26.6,103.21 31.73,107.87 38.02,107.87 L85.79,107.87 C91.110291,108.033711 95.611551,103.969338 95.99,98.66 L112.24,106.73 C112.649883,106.96815 113.115961,107.092437 113.59,107.09 C115.48576,107.070079 117.292365,106.282055 118.596654,104.906143 C119.900943,103.530231 120.591356,101.684118 120.51,99.79 L120.51,69.67 C120.49,65.51 117.58,62.37 113.72,62.37 Z M113.93,99.82 C113.933203,100.004933 113.888413,100.187539 113.8,100.35 L96.04,91.35 L96.04,78.06 L113.79,69.18 C113.878413,69.3424613 113.923203,69.5250668 113.92,69.71 L113.92,99.86 L113.93,99.82 Z M74.66,62.54 C68.2541524,62.5461945 62.6686137,58.1858441 61.12,51.97 C61.0485745,51.178064 60.9182133,50.3925542 60.73,49.62 C60.73,49.27 60.73,48.91 60.73,48.56 C60.7219699,42.8893603 64.1354453,37.7739348 69.3748457,35.6048561 C74.6142462,33.4357774 80.6446376,34.6415018 84.6471997,38.6584305 C88.6497617,42.6753593 89.8338718,48.710032 87.6460346,53.9416272 C85.4581975,59.1732223 80.3305745,62.5683475 74.66,62.54 Z M33.16,73.76 C33.16,71.3962213 35.0762213,69.48 37.44,69.48 L85.19,69.48 C87.5537787,69.48 89.47,71.3962213 89.47,73.76 L89.47,97.06 C89.4645017,99.4214975 87.5514975,101.334502 85.19,101.34 L37.45,101.34 C35.0885025,101.334502 33.1754983,99.4214975 33.17,97.06 L33.17,73.75 L33.16,73.76 Z M45.4,62.54 C40.6547344,62.544094 36.6813063,58.9457466 36.2164015,54.223308 C35.7514968,49.5008695 38.9469617,45.1967739 43.6019301,44.2754533 C48.2568985,43.3541327 52.8509732,46.1165071 54.22,50.66 C54.3002072,51.4336231 54.4271052,52.2016905 54.6,52.96 L54.6,53.09 C54.6,53.17 54.6,53.24 54.6,53.32 C54.5945459,58.3981059 50.4880611,62.517996 45.41,62.54 L45.4,62.54 Z M63.05,63.86 L55.32,63.86 C56.7267194,62.6245046 57.8695461,61.117742 58.68,59.43 C59.8740825,61.1478072 61.3558567,62.6464966 63.06,63.86 L63.05,63.86 Z" id="Shape"></path>
            </g>
        </g>
    </g>
</svg>