<?xml version="1.0" encoding="UTF-8" standalone="no"?>
<svg width="139px" height="142px" viewBox="0 0 139 142" version="1.1" xmlns="http://www.w3.org/2000/svg" xmlns:xlink="http://www.w3.org/1999/xlink">
    <!-- Generator: Sketch 50.2 (55047) - http://www.bohemiancoding.com/sketch -->
    <title>Shape</title>
    <desc>Created with Sketch.</desc>
    <defs></defs>
    <g id="iconos" stroke="none" stroke-width="1" fill="none" fill-rule="evenodd">
        <g id="Desktop" transform="translate(-252.000000, -296.000000)" fill="#FFFFFF" fill-rule="nonzero">
            <path d="M368.16,437.56 C374.1422,437.540526 379.881436,435.191026 384.16,431.01 C388.404118,426.773162 390.764766,421.006694 390.71,415.01 L390.71,319.52 C390.690526,313.5378 388.341026,307.798564 384.16,303.52 C379.923162,299.275882 374.156694,296.915234 368.16,296.97 L275.52,296.97 C269.5378,296.989474 263.798564,299.338974 259.52,303.52 C255.275882,307.756838 252.915234,313.523306 252.97,319.52 L252.97,414.88 C252.989474,420.8622 255.338974,426.601436 259.52,430.88 C263.756838,435.124118 269.523306,437.484766 275.52,437.43 L368.16,437.43 L368.16,437.59 L368.16,437.56 Z M265.61,309.78 C268.227508,307.136207 271.789675,305.642975 275.51,305.63 L368.15,305.63 C375.884094,305.695131 382.139367,311.945954 382.21,319.68 L382.21,369.52 L358.73,345.88 C357.925346,345.074544 356.83352,344.621975 355.695,344.621975 C354.55648,344.621975 353.464654,345.074544 352.66,345.88 L317.04,381.66 L292.93,357.54 C292.125346,356.734544 291.03352,356.281975 289.895,356.281975 C288.75648,356.281975 287.664654,356.734544 286.86,357.54 L261.619082,382.94 L261.62,319.52 C261.577424,315.867217 263.016982,312.353109 265.61,309.78 Z M261.61,415.04 L261.61,395.04 L289.89,366.64 L314.01,390.76 C315.717412,392.359018 318.372588,392.359018 320.08,390.76 L355.7,354.98 L382.21,381.49 L382.21,415.03 C382.144789,422.767951 375.887951,429.024789 368.15,429.09 L275.52,429.09 C271.808187,429.08752 268.251321,427.601628 265.640796,424.962931 C263.030271,422.324235 261.582641,418.751626 261.62,415.04 L261.61,415.04 Z" id="Shape"></path>
        </g>
    </g>
</svg>