<?xml version="1.0" encoding="UTF-8" standalone="no"?>
<svg width="138px" height="141px" viewBox="0 0 138 141" version="1.1" xmlns="http://www.w3.org/2000/svg" xmlns:xlink="http://www.w3.org/1999/xlink">
    <!-- Generator: Sketch 50.2 (55047) - http://www.bohemiancoding.com/sketch -->
    <title>Group 3</title>
    <desc>Created with Sketch.</desc>
    <defs></defs>
    <g id="iconos" stroke="none" stroke-width="1" fill="none" fill-rule="evenodd">
        <g id="Desktop" transform="translate(-662.000000, -298.000000)" fill="#FFFFFF" fill-rule="nonzero">
            <g id="Group-3" transform="translate(662.000000, 298.000000)">
                <path d="M131.21,7.28 C126.993805,3.05640603 121.257654,0.703575056 115.29,0.75 L22.93,0.75 C16.976862,0.777522369 11.2677866,3.11924739 7.01,7.28 C2.7913688,11.4913187 0.438948331,17.2192644 0.48,23.18 L0.48,118.24 C0.50233342,124.200068 2.84444172,129.917251 7.01,134.18 C11.2261949,138.403594 16.9623464,140.756425 22.93,140.71 L115.29,140.71 L115.29,140.87 C121.243138,140.842478 126.952213,138.500753 131.21,134.34 C135.449453,130.134519 137.820518,124.40144 137.79,118.43 L137.79,23.18 C137.743924,17.2267696 135.384257,11.5248384 131.21,7.28 Z M129.3,42.8 L129.3,118.43 C129.224129,126.130341 123.000341,132.354129 115.3,132.43 L22.93,132.43 C19.2314476,132.42752 15.6872989,130.946896 13.0861503,128.317576 C10.4850018,125.688256 9.04264004,122.128365 9.08,118.43 L9.08,23.18 C9.04361293,19.5352471 10.4869432,16.0315629 13.08,13.47 C15.6918124,10.8372155 19.2415253,9.34827813 22.95,9.33 L115.29,9.33 C122.990341,9.40587093 129.214129,15.6296592 129.29,23.33 L129.29,42.8 L129.3,42.8 Z" id="Shape"></path>
                <path d="M109.27,67.3 C109.16,67.61 109.04,67.92 108.92,68.22 C108.370274,69.6503915 107.623024,70.9967891 106.7,72.22 C106.213231,72.8351082 105.670949,73.404169 105.08,73.92 C110.14,76.15 112.08,78.36 112.08,79.97 C112.08,81.36 110.08,83.87 104.31,86.34 C98.31,88.92 89.81,90.81 80.31,91.67 L71.92,91.56 L71.87,91.56 C69.7984214,91.5651934 68.1127027,93.228673 68.08,95.3 C68.0666513,96.3051962 68.4532073,97.2745158 69.1546121,97.9946747 C69.8560169,98.7148336 70.8148015,99.1268263 71.82,99.14 L80.41,99.26 L80.79,99.26 C91.15,98.34 100.57,96.26 107.31,93.33 C117.52,88.93 119.66,83.65 119.66,80 C119.7,75.34 115.59,70.63 109.27,67.3 Z" id="Shape"></path>
                <path d="M64.79,92.59 L57.79,84.24 C56.907554,83.2039297 55.5394034,82.7173406 54.2009172,82.9635261 C52.862431,83.2097117 51.7569572,84.1512704 51.3009171,85.4335262 C50.8448769,86.715782 51.1075539,88.1439298 51.99,89.18 L53.9,91.44 C46.9086904,90.7841761 40.0297323,89.2383428 33.43,86.84 C26.81,84.23 24.43,81.51 24.43,79.98 C24.43,78.75 25.81,77.07 28.75,75.34 C27.9214832,74.770684 27.1540675,74.1172077 26.46,73.39 C25.3626814,72.2377384 24.5449543,70.8486288 24.07,69.33 C23.4033333,69.75 22.79,70.18 22.23,70.62 C18.65,73.39 16.84,76.54 16.84,79.98 C16.84,83.85 19.23,89.4 30.61,93.89 C37.9515399,96.5692538 45.6080729,98.2901252 53.39,99.01 L51.55,101.01 C50.6425454,102.015703 50.3405587,103.429131 50.7577955,104.717862 C51.1750322,106.006592 52.2481041,106.974834 53.5727955,107.257862 C54.8974868,107.540889 56.2725454,107.095703 57.18,106.09 L64.71,97.74 C65.3480832,97.0474522 65.70469,96.1416711 65.71,95.2 L65.71,95.04 C65.7030942,94.1401629 65.377081,93.2719754 64.79,92.59 Z" id="Shape"></path>
                <path d="M50.68,64.94 C50.7306011,67.6735212 49.4844367,70.269697 47.32,71.94 C44.8897859,73.8316347 41.8669398,74.7990872 38.79,74.67 C35.862987,74.7675356 32.9862345,73.8918493 30.61,72.18 C28.3928032,70.5205627 26.9482385,68.0286885 26.61,65.28 L35.41,63.73 C35.5362897,64.7419021 35.968965,65.6909965 36.65,66.45 C37.2400945,67.0945151 38.0761884,67.4580341 38.95,67.45 C39.7733679,67.4911283 40.5836344,67.2317009 41.23,66.72 C41.7980797,66.2473716 42.1155782,65.5385377 42.09,64.8 C42.1063618,64.0726713 41.7571627,63.3855376 41.16,62.97 C40.4159003,62.4753352 39.5323037,62.233398 38.64,62.28 L35.28,62.28 L35.28,55.88 L38.46,55.88 C39.3354215,55.9254873 40.2029894,55.6946023 40.94,55.22 C41.5332846,54.8287613 41.8843913,54.1605261 41.87,53.45 C41.8987951,52.7208623 41.5886801,52.0194118 41.03,51.55 C40.3892082,51.051557 39.59082,50.7996212 38.78,50.84 C36.78,50.84 35.66,52.15 35.42,54.77 L26.85,53.18 C27.209296,50.4108928 28.6467195,47.8954017 30.85,46.18 C35.7337855,42.8201448 42.2082731,42.9164197 46.99,46.42 C49.0525806,48.0509405 50.2360003,50.5509147 50.19,53.18 C50.2850266,55.4824962 49.1153263,57.6531533 47.14,58.84 C49.3762522,60.0427187 50.7452193,62.4016732 50.68,64.94 Z" id="Shape"></path>
                <path d="M74.84,57.45 C76.7358211,59.314621 77.7562777,61.892999 77.65,64.55 C77.7251717,67.3551212 76.5132243,70.0405609 74.36,71.84 C68.9232036,75.9962408 61.2608321,75.5364985 56.36,70.76 C53.98,68.1466667 52.79,64.4966667 52.79,59.81 C52.79,54.3566667 54.2333333,50.1866667 57.12,47.3 C59.4954495,44.9128222 62.7538888,43.6166875 66.12,43.72 C68.6704022,43.6412416 71.1846165,44.3386658 73.33,45.72 C75.2753128,47.0281565 76.6513754,49.026128 77.18,51.31 L68.69,53.03 C68.3391477,51.7372415 67.1021878,50.8900086 65.77,51.03 C64.6708782,51.0473454 63.6353727,51.5486326 62.94,52.4 C61.87084,53.7409463 61.3079311,55.4155117 61.35,57.13 C62.961073,55.5479924 65.1538006,54.7012956 67.41,54.79 C70.1424211,54.6494853 72.8176125,55.6072254 74.84,57.45 Z M68.25,66.69 C68.9348219,66.0387347 69.3225013,65.1350542 69.3225013,64.19 C69.3225013,63.2449458 68.9348219,62.3412653 68.25,61.69 C67.5680358,61.035219 66.6553115,60.6758787 65.71,60.69 C64.7701749,60.6734964 63.8627882,61.0335705 63.19,61.69 C62.4892167,62.3541257 62.1038303,63.2848703 62.13,64.25 C62.1139755,65.1899107 62.4995647,66.0920439 63.19,66.73 C63.8627882,67.3864295 64.7701749,67.7465036 65.71,67.73 C66.661857,67.7378886 67.5770065,67.3631817 68.25,66.69 Z" id="Shape"></path>
                <path d="M103.18,47.99 C105.673333,50.8366667 106.92,54.5733333 106.92,59.2 C106.92,63.8266667 105.673333,67.5633333 103.18,70.41 C100.633105,73.1315023 97.0723651,74.6759968 93.345,74.6759968 C89.6176349,74.6759968 86.0568953,73.1315023 83.51,70.41 C81.03,67.59 79.79,63.8466667 79.79,59.18 C79.79,54.5133333 81.0366667,50.7766667 83.53,47.97 C86.0791326,45.2575639 89.6370506,43.7208853 93.3593311,43.7246739 C97.0816117,43.7284625 100.636394,45.2723804 103.18,47.99 Z M96.55,64.99 C97.4365047,63.1873141 97.8396632,61.1853049 97.72,59.18 C97.8290044,57.2043985 97.4259938,55.2341246 96.55,53.46 C95.9556037,52.2307052 94.7104569,51.4497016 93.345,51.4497016 C91.9795431,51.4497016 90.7343963,52.2307052 90.14,53.46 C89.2605577,55.2332047 88.8540932,57.2035239 88.96,59.18 C88.8473076,61.1719459 89.2502867,63.1592872 90.13,64.95 C90.7202865,66.1858893 91.9672336,66.9735543 93.3368525,66.9756876 C94.7064715,66.977821 95.9558663,66.1940444 96.55,64.96 L96.55,64.99 Z" id="Shape"></path>
                <path d="M117.63,42.89 C118.592718,43.753673 119.12669,44.9971697 119.09,46.29 C119.131846,47.5780378 118.596456,48.817501 117.63,49.67 C115.56887,51.4123082 112.55113,51.4123082 110.49,49.67 C109.519834,48.8193892 108.98066,47.5796564 109.02,46.29 C108.985836,44.9955753 109.523578,43.7518186 110.49,42.89 C112.538659,41.1139475 115.581341,41.1139475 117.63,42.89 Z M115.08,47.36 C115.349211,47.069348 115.496052,46.6861266 115.49,46.29 C115.500715,45.8841113 115.353765,45.4898553 115.08,45.19 C114.824306,44.9079373 114.460703,44.747952 114.08,44.75 C113.698223,44.7426847 113.332536,44.903587 113.08,45.19 C112.816138,45.4944838 112.676864,45.8873077 112.69,46.29 C112.681498,46.6829077 112.820662,47.0647164 113.08,47.36 C113.332536,47.646413 113.698223,47.8073153 114.08,47.8 C114.459159,47.8046104 114.82252,47.648365 115.08,47.37 L115.08,47.36 Z" id="Shape"></path>
            </g>
        </g>
    </g>
</svg>